<?xml version="1.0" encoding="utf-8"?>
<svg version="1.1" xmlns:xlink="http://www.w3.org/1999/xlink" width="12px" height="12px" viewBox="254 278  12 12" xmlns="http://www.w3.org/2000/svg">
  <path d="M 260 278  C 263.36 278  266 280.64  266 284  C 266 287.36  263.36 290  260 290  C 256.64 290  254 287.36  254 284  C 254 280.64  256.64 278  260 278  Z " fill-rule="nonzero" fill="#f0f0f0" stroke="none" />
  <path d="M 260 278.5  C 263.08 278.5  265.5 280.92  265.5 284  C 265.5 287.08  263.08 289.5  260 289.5  C 256.92 289.5  254.5 287.08  254.5 284  C 254.5 280.92  256.92 278.5  260 278.5  Z " stroke-width="1" stroke="#797979" fill="none" />
  <path d="M 260 287  C 258.32 287  257 285.68  257 284  C 257 282.32  258.32 281  260 281  C 261.68 281  263 282.32  263 284  C 263 285.68  261.68 287  260 287  " fill-rule="nonzero" fill="#797979" stroke="none" />
</svg>