<?xml version="1.0" encoding="utf-8"?>
<svg version="1.1" xmlns:xlink="http://www.w3.org/1999/xlink" width="12px" height="12px" viewBox="254 210  12 12" xmlns="http://www.w3.org/2000/svg">
  <path d="M 260 210  C 263.36 210  266 212.64  266 216  C 266 219.36  263.36 222  260 222  C 256.64 222  254 219.36  254 216  C 254 212.64  256.64 210  260 210  Z " fill-rule="nonzero" fill="#ffffff" stroke="none" />
  <path d="M 260 210.5  C 263.08 210.5  265.5 212.92  265.5 216  C 265.5 219.08  263.08 221.5  260 221.5  C 256.92 221.5  254.5 219.08  254.5 216  C 254.5 212.92  256.92 210.5  260 210.5  Z " stroke-width="1" stroke="#797979" fill="none" />
  <path d="M 260 219  C 258.32 219  257 217.68  257 216  C 257 214.32  258.32 213  260 213  C 261.68 213  263 214.32  263 216  C 263 217.68  261.68 219  260 219  " fill-rule="nonzero" fill="#797979" stroke="none" />
</svg>