<?xml version="1.0" encoding="utf-8"?>
<svg version="1.1" xmlns:xlink="http://www.w3.org/1999/xlink" width="12px" height="12px" viewBox="254 152  12 12" xmlns="http://www.w3.org/2000/svg">
  <path d="M 260 152  C 263.36 152  266 154.64  266 158  C 266 161.36  263.36 164  260 164  C 256.64 164  254 161.36  254 158  C 254 154.64  256.64 152  260 152  Z " fill-rule="nonzero" fill="#ffffff" stroke="none" />
  <path d="M 260 152.5  C 263.08 152.5  265.5 154.92  265.5 158  C 265.5 161.08  263.08 163.5  260 163.5  C 256.92 163.5  254.5 161.08  254.5 158  C 254.5 154.92  256.92 152.5  260 152.5  Z " stroke-width="1" stroke="#797979" fill="none" />
  <path d="M 260 161  C 258.32 161  257 159.68  257 158  C 257 156.32  258.32 155  260 155  C 261.68 155  263 156.32  263 158  C 263 159.68  261.68 161  260 161  " fill-rule="nonzero" fill="#797979" stroke="none" />
</svg>