<?xml version="1.0" encoding="utf-8"?>
<svg version="1.1" xmlns:xlink="http://www.w3.org/1999/xlink" width="331px" height="104px" xmlns="http://www.w3.org/2000/svg">
  <g transform="matrix(1 0 0 1 -163 -1440 )">
    <path d="M 164 1444  A 3 3 0 0 1 167 1441 L 490 1441  A 3 3 0 0 1 493 1444 L 493 1540  A 3 3 0 0 1 490 1543 L 167 1543  A 3 3 0 0 1 164 1540 L 164 1444  Z " fill-rule="nonzero" fill="#000000" stroke="none" fill-opacity="0.0196078431372549" />
    <path d="M 163.5 1444  A 3.5 3.5 0 0 1 167 1440.5 L 490 1440.5  A 3.5 3.5 0 0 1 493.5 1444 L 493.5 1540  A 3.5 3.5 0 0 1 490 1543.5 L 167 1543.5  A 3.5 3.5 0 0 1 163.5 1540 L 163.5 1444  Z " stroke-width="1" stroke-dasharray="9,4" stroke="#d9d9d9" fill="none" stroke-dashoffset="0.5" />
  </g>
</svg>