<?xml version="1.0" encoding="utf-8"?>
<svg version="1.1" xmlns:xlink="http://www.w3.org/1999/xlink" width="70px" height="25px" xmlns="http://www.w3.org/2000/svg">
  <g transform="matrix(1 0 0 1 -178 -452 )">
    <path d="M 179 460  A 7 7 0 0 1 186 453 L 240 453  A 7 7 0 0 1 247 460 L 247 469  A 7 7 0 0 1 240 476 L 186 476  A 7 7 0 0 1 179 469 L 179 460  Z " fill-rule="nonzero" fill="#0079fe" stroke="none" />
    <path d="M 178.5 460  A 7.5 7.5 0 0 1 186 452.5 L 240 452.5  A 7.5 7.5 0 0 1 247.5 460 L 247.5 469  A 7.5 7.5 0 0 1 240 476.5 L 186 476.5  A 7.5 7.5 0 0 1 178.5 469 L 178.5 460  Z " stroke-width="1" stroke="#0079fe" fill="none" stroke-opacity="0.654901960784314" />
  </g>
</svg>