<?xml version="1.0" encoding="utf-8"?>
<svg version="1.1" xmlns:xlink="http://www.w3.org/1999/xlink" width="20px" height="21px" xmlns="http://www.w3.org/2000/svg">
  <g transform="matrix(1 0 0 1 -1279 -1253 )">
    <path d="M 5.10216346153846 15.8411458333333  C 5.40264423076923 16.1449652777778  5.55288461538462 16.5115740740741  5.55288461538462 16.9409722222222  C 5.55288461538462 17.3703703703704  5.40264423076923 17.7369791666667  5.10216346153846 18.0407986111111  C 4.80168269230769 18.3446180555556  4.43910256410256 18.4965277777778  4.01442307692308 18.4965277777778  C 3.59775641025641 18.4965277777778  3.23717948717949 18.3425925925926  2.93269230769231 18.0347222222222  C 2.62820512820513 17.7268518518519  2.47596153846154 17.3622685185185  2.47596153846154 16.9409722222222  C 2.47596153846154 16.5115740740741  2.62620192307692 16.1449652777778  2.92668269230769 15.8411458333333  C 3.22716346153846 15.5373263888889  3.58974358974359 15.3854166666667  4.01442307692308 15.3854166666667  C 4.43910256410256 15.3854166666667  4.80168269230769 15.5373263888889  5.10216346153846 15.8411458333333  Z M 11.0877403846154 18.3446180555556  C 11.3882211538462 18.6484375  11.5384615384615 19.0150462962963  11.5384615384615 19.4444444444444  C 11.5384615384615 19.8738425925926  11.3882211538462 20.2404513888889  11.0877403846154 20.5442708333333  C 10.7872596153846 20.8480902777778  10.4246794871795 21  10 21  C 9.57532051282051 21  9.21274038461539 20.8480902777778  8.91225961538461 20.5442708333333  C 8.61177884615385 20.2404513888889  8.46153846153846 19.8738425925926  8.46153846153846 19.4444444444444  C 8.46153846153846 19.0150462962963  8.61177884615385 18.6484375  8.91225961538461 18.3446180555556  C 9.21274038461539 18.0407986111111  9.57532051282051 17.8888888888889  10 17.8888888888889  C 10.4246794871795 17.8888888888889  10.7872596153846 18.0407986111111  11.0877403846154 18.3446180555556  Z M 2.62620192307692 9.7890625  C 2.92668269230769 10.0928819444444  3.07692307692308 10.4594907407407  3.07692307692308 10.8888888888889  C 3.07692307692308 11.318287037037  2.92668269230769 11.6848958333333  2.62620192307692 11.9887152777778  C 2.32572115384615 12.2925347222222  1.96314102564103 12.4444444444444  1.53846153846154 12.4444444444444  C 1.11378205128205 12.4444444444444  0.751201923076923 12.2925347222222  0.450721153846154 11.9887152777778  C 0.150240384615385 11.6848958333333  0 11.318287037037  0 10.8888888888889  C 0 10.4594907407407  0.150240384615385 10.0928819444444  0.450721153846154 9.7890625  C 0.751201923076923 9.48524305555556  1.11378205128205 9.33333333333333  1.53846153846154 9.33333333333333  C 1.96314102564103 9.33333333333333  2.32572115384615 9.48524305555556  2.62620192307692 9.7890625  Z M 17.0733173076923 15.8411458333333  C 17.3737980769231 16.1449652777778  17.5240384615385 16.5115740740741  17.5240384615385 16.9409722222222  C 17.5240384615385 17.3622685185185  17.3717948717949 17.7268518518519  17.0673076923077 18.0347222222222  C 16.7628205128205 18.3425925925926  16.4022435897436 18.4965277777778  15.9855769230769 18.4965277777778  C 15.5608974358974 18.4965277777778  15.1983173076923 18.3446180555556  14.8978365384615 18.0407986111111  C 14.5973557692308 17.7369791666667  14.4471153846154 17.3703703703704  14.4471153846154 16.9409722222222  C 14.4471153846154 16.5115740740741  14.5973557692308 16.1449652777778  14.8978365384615 15.8411458333333  C 15.1983173076923 15.5373263888889  15.5608974358974 15.3854166666667  15.9855769230769 15.3854166666667  C 16.4102564102564 15.3854166666667  16.7728365384615 15.5373263888889  17.0733173076923 15.8411458333333  Z M 5.37259615384615 3.46354166666667  C 5.74919871794872 3.8443287037037  5.9375 4.30208333333333  5.9375 4.83680555555556  C 5.9375 5.37152777777778  5.74919871794872 5.8292824074074  5.37259615384615 6.21006944444444  C 4.99599358974359 6.59085648148148  4.54326923076923 6.78125  4.01442307692308 6.78125  C 3.48557692307692 6.78125  3.03285256410256 6.59085648148148  2.65625 6.21006944444444  C 2.27964743589744 5.8292824074074  2.09134615384615 5.37152777777778  2.09134615384615 4.83680555555556  C 2.09134615384615 4.30208333333333  2.27964743589744 3.8443287037037  2.65625 3.46354166666667  C 3.03285256410256 3.08275462962963  3.48557692307692 2.89236111111111  4.01442307692308 2.89236111111111  C 4.54326923076923 2.89236111111111  4.99599358974359 3.08275462962963  5.37259615384615 3.46354166666667  Z M 19.5492788461538 9.7890625  C 19.8497596153846 10.0928819444444  20 10.4594907407407  20 10.8888888888889  C 20 11.318287037037  19.8497596153846 11.6848958333333  19.5492788461538 11.9887152777778  C 19.2487980769231 12.2925347222222  18.886217948718 12.4444444444444  18.4615384615385 12.4444444444444  C 18.036858974359 12.4444444444444  17.6742788461538 12.2925347222222  17.3737980769231 11.9887152777778  C 17.0733173076923 11.6848958333333  16.9230769230769 11.318287037037  16.9230769230769 10.8888888888889  C 16.9230769230769 10.4594907407407  17.0733173076923 10.0928819444444  17.3737980769231 9.7890625  C 17.6742788461538 9.48524305555556  18.036858974359 9.33333333333333  18.4615384615385 9.33333333333333  C 18.886217948718 9.33333333333333  19.2487980769231 9.48524305555556  19.5492788461538 9.7890625  Z M 11.6346153846154 0.680555555555556  C 12.0833333333333 1.13425925925926  12.3076923076923 1.68518518518518  12.3076923076923 2.33333333333333  C 12.3076923076923 2.98148148148148  12.0833333333333 3.5324074074074  11.6346153846154 3.98611111111111  C 11.1858974358974 4.43981481481481  10.6410256410256 4.66666666666667  10 4.66666666666667  C 9.35897435897436 4.66666666666667  8.81410256410257 4.43981481481481  8.36538461538461 3.98611111111111  C 7.91666666666667 3.5324074074074  7.69230769230769 2.98148148148148  7.69230769230769 2.33333333333333  C 7.69230769230769 1.68518518518518  7.91666666666667 1.13425925925926  8.36538461538461 0.680555555555556  C 8.81410256410257 0.226851851851853  9.35897435897436 0  10 0  C 10.6410256410256 0  11.1858974358974 0.226851851851853  11.6346153846154 0.680555555555556  Z M 17.8846153846154 2.91666666666667  C 18.4134615384615 3.45138888888889  18.6778846153846 4.09143518518518  18.6778846153846 4.83680555555556  C 18.6778846153846 5.59027777777778  18.4134615384615 6.23234953703704  17.8846153846154 6.76302083333333  C 17.3557692307692 7.29369212962963  16.7227564102564 7.55902777777778  15.9855769230769 7.55902777777778  C 15.2403846153846 7.55902777777778  14.6053685897436 7.29369212962963  14.0805288461538 6.76302083333333  C 13.5556891025641 6.23234953703704  13.2932692307692 5.59027777777778  13.2932692307692 4.83680555555556  C 13.2932692307692 4.09143518518518  13.5556891025641 3.45138888888889  14.0805288461538 2.91666666666667  C 14.6053685897436 2.38194444444444  15.2403846153846 2.11458333333333  15.9855769230769 2.11458333333333  C 16.7227564102564 2.11458333333333  17.3557692307692 2.38194444444444  17.8846153846154 2.91666666666667  Z " fill-rule="nonzero" fill="#000000" stroke="none" transform="matrix(1 0 0 1 1279 1253 )" />
  </g>
</svg>