<?xml version="1.0" encoding="utf-8"?>
<svg version="1.1" xmlns:xlink="http://www.w3.org/1999/xlink" width="50px" height="24px" xmlns="http://www.w3.org/2000/svg">
  <defs>
    <mask fill="white" id="clip3">
      <path d="M 6.98412698412698 15.7913777509798  C 3.12690015991191 15.7913777509798  0 12.2875192713947  0 7.96529079445807  L 0 7.82608695652174  C 0 3.5038584795851  3.12690015991191 0  6.98412698412698 0  L 37.015873015873 0  C 40.8730998400881 0  44 3.5038584795851  44 7.82608695652174  L 44 7.96529079445807  C 44 8.28411659740692  43.982986036444 8.59848951839661  43.9499200050189 8.9073317019837  C 43.5347194867373 12.7853729777433  40.5885745203489 15.7913777509798  37.015873015873 15.7913777509798  L 16.9015873015873 15.7913777509798  L 12.8380952380952 18  L 8.86984126984126 15.7913777509798  L 6.98412698412698 15.7913777509798  Z " fill-rule="evenodd" />
    </mask>
    <filter x="1569px" y="1084px" width="50px" height="24px" filterUnits="userSpaceOnUse" id="filter4">
      <feOffset dx="0" dy="0" in="SourceAlpha" result="shadowOffsetInner" />
      <feGaussianBlur stdDeviation="1.5" in="shadowOffsetInner" result="shadowGaussian" />
      <feComposite in2="shadowGaussian" operator="atop" in="SourceAlpha" result="shadowComposite" />
      <feColorMatrix type="matrix" values="0 0 0 0 0.6  0 0 0 0 0.6  0 0 0 0 0.6  0 0 0 0.349019607843137 0  " in="shadowComposite" />
    </filter>
    <g id="widget5">
      <path d="M 6.98412698412698 15.7913777509798  C 3.12690015991191 15.7913777509798  0 12.2875192713947  0 7.96529079445807  L 0 7.82608695652174  C 0 3.5038584795851  3.12690015991191 0  6.98412698412698 0  L 37.015873015873 0  C 40.8730998400881 0  44 3.5038584795851  44 7.82608695652174  L 44 7.96529079445807  C 44 8.28411659740692  43.982986036444 8.59848951839661  43.9499200050189 8.9073317019837  C 43.5347194867373 12.7853729777433  40.5885745203489 15.7913777509798  37.015873015873 15.7913777509798  L 16.9015873015873 15.7913777509798  L 12.8380952380952 18  L 8.86984126984126 15.7913777509798  L 6.98412698412698 15.7913777509798  Z " fill-rule="nonzero" fill="#ffffff" stroke="none" transform="matrix(1 0 0 1 1572 1087 )" />
      <path d="M 6.98412698412698 15.7913777509798  C 3.12690015991191 15.7913777509798  0 12.2875192713947  0 7.96529079445807  L 0 7.82608695652174  C 0 3.5038584795851  3.12690015991191 0  6.98412698412698 0  L 37.015873015873 0  C 40.8730998400881 0  44 3.5038584795851  44 7.82608695652174  L 44 7.96529079445807  C 44 8.28411659740692  43.982986036444 8.59848951839661  43.9499200050189 8.9073317019837  C 43.5347194867373 12.7853729777433  40.5885745203489 15.7913777509798  37.015873015873 15.7913777509798  L 16.9015873015873 15.7913777509798  L 12.8380952380952 18  L 8.86984126984126 15.7913777509798  L 6.98412698412698 15.7913777509798  Z " stroke-width="2" stroke="#ffffff" fill="none" transform="matrix(1 0 0 1 1572 1087 )" mask="url(#clip3)" />
    </g>
  </defs>
  <g transform="matrix(1 0 0 1 -1569 -1084 )">
    <use xlink:href="#widget5" filter="url(#filter4)" />
    <use xlink:href="#widget5" />
  </g>
</svg>