<?xml version="1.0" encoding="utf-8"?>
<svg version="1.1" xmlns:xlink="http://www.w3.org/1999/xlink" width="180px" height="180px" xmlns="http://www.w3.org/2000/svg">
  <g transform="matrix(1 0 0 1 -201 -1037 )">
    <path d="M 202 1041  A 3 3 0 0 1 205 1038 L 377 1038  A 3 3 0 0 1 380 1041 L 380 1213  A 3 3 0 0 1 377 1216 L 205 1216  A 3 3 0 0 1 202 1213 L 202 1041  Z " fill-rule="nonzero" fill="#ffffff" stroke="none" />
    <path d="M 201.5 1041  A 3.5 3.5 0 0 1 205 1037.5 L 377 1037.5  A 3.5 3.5 0 0 1 380.5 1041 L 380.5 1213  A 3.5 3.5 0 0 1 377 1216.5 L 205 1216.5  A 3.5 3.5 0 0 1 201.5 1213 L 201.5 1041  Z " stroke-width="1" stroke-dasharray="9,4" stroke="#d9d9d9" fill="none" stroke-dashoffset="0.5" />
  </g>
</svg>