<?xml version="1.0" encoding="utf-8"?>
<svg version="1.1" xmlns:xlink="http://www.w3.org/1999/xlink" width="12px" height="12px" viewBox="451 93  12 12" xmlns="http://www.w3.org/2000/svg">
  <path d="M 457 93  C 460.36 93  463 95.64  463 99  C 463 102.36  460.36 105  457 105  C 453.64 105  451 102.36  451 99  C 451 95.64  453.64 93  457 93  Z " fill-rule="nonzero" fill="#ffffff" stroke="none" />
  <path d="M 457 93.5  C 460.08 93.5  462.5 95.92  462.5 99  C 462.5 102.08  460.08 104.5  457 104.5  C 453.92 104.5  451.5 102.08  451.5 99  C 451.5 95.92  453.92 93.5  457 93.5  Z " stroke-width="1" stroke="#797979" fill="none" />
  <path d="M 457 102  C 455.32 102  454 100.68  454 99  C 454 97.32  455.32 96  457 96  C 458.68 96  460 97.32  460 99  C 460 100.68  458.68 102  457 102  " fill-rule="nonzero" fill="#797979" stroke="none" />
</svg>