<?xml version="1.0" encoding="utf-8"?>
<svg version="1.1" xmlns:xlink="http://www.w3.org/1999/xlink" width="969px" height="142px" xmlns="http://www.w3.org/2000/svg">
  <g transform="matrix(1 0 0 1 -2418 -1004 )">
    <path d="M 2419 1008  A 3 3 0 0 1 2422 1005 L 3383 1005  A 3 3 0 0 1 3386 1008 L 3386 1142  A 3 3 0 0 1 3383 1145 L 2422 1145  A 3 3 0 0 1 2419 1142 L 2419 1008  Z " fill-rule="nonzero" fill="#000000" stroke="none" fill-opacity="0.0196078431372549" />
    <path d="M 2418.5 1008  A 3.5 3.5 0 0 1 2422 1004.5 L 3383 1004.5  A 3.5 3.5 0 0 1 3386.5 1008 L 3386.5 1142  A 3.5 3.5 0 0 1 3383 1145.5 L 2422 1145.5  A 3.5 3.5 0 0 1 2418.5 1142 L 2418.5 1008  Z " stroke-width="1" stroke-dasharray="9,4" stroke="#d9d9d9" fill="none" stroke-dashoffset="0.5" />
  </g>
</svg>